<?xml version="1.0" encoding="utf-8"?>
<!-- Generator: Adobe Illustrator 25.4.1, SVG Export Plug-In . SVG Version: 6.00 Build 0)  -->
<svg version="1.1" id="Слой_1" xmlns="http://www.w3.org/2000/svg" xmlns:xlink="http://www.w3.org/1999/xlink" x="0px" y="0px"
	 viewBox="0 0 192.3 28.5" style="enable-background:new 0 0 192.3 28.5;" xml:space="preserve">
<style type="text/css">
	.st0{fill:#FFFFFF;}
</style>
<path class="st0" d="M19.4,18.6c0.6,0.9,0.9,1.9,0.8,3c0,1.1-0.3,2.2-0.9,3.2c-0.6,0.9-1.4,1.6-2.3,2.2c-1,0.6-2.1,1-3.3,1.2
	c-1.2,0.3-2.5,0.4-3.7,0.4c-1.3,0-2.5-0.1-3.8-0.4c-1.1-0.3-2.2-0.7-3.2-1.3c-0.9-0.6-1.7-1.3-2.2-2.2c-0.6-0.9-0.8-2-0.8-3.1v-0.4
	h5.9v0.3c0,0.8,0.4,1.6,1.2,1.9c1,0.5,2,0.7,3.1,0.6c0.7,0,1.4-0.1,2-0.2c0.6-0.1,1.1-0.4,1.6-0.7c0.4-0.3,0.6-0.8,0.6-1.2
	c0-0.8-0.5-1.5-1.3-1.7c-1.3-0.5-2.7-0.8-4.1-1C8,18.9,7,18.7,6,18.4c-1-0.3-1.9-0.7-2.8-1.2c-0.8-0.5-1.5-1.1-2.1-1.9
	c-0.5-0.8-0.8-1.8-0.8-2.8c0-1.4,0.4-2.7,1.3-3.7c1-1.1,2.2-1.9,3.5-2.3c1.6-0.5,3.2-0.8,4.9-0.8c1.6,0,3.2,0.3,4.8,0.9
	c1.4,0.5,2.6,1.3,3.6,2.4c0.9,1.1,1.4,2.4,1.4,3.8V13h-5.9v-0.3c0-0.5-0.2-1.1-0.6-1.5c-0.4-0.4-0.9-0.7-1.5-0.8
	c-0.6-0.2-1.2-0.3-1.8-0.3c-0.6,0-1.2,0.1-1.8,0.2c-0.6,0.1-1.1,0.3-1.5,0.6c-0.4,0.3-0.6,0.7-0.6,1.2c0,0.5,0.2,1,0.7,1.2
	c0.6,0.4,1.2,0.6,1.8,0.8c0.8,0.2,1.7,0.4,2.7,0.6c1,0.2,2,0.4,3,0.7c1,0.3,2,0.7,2.9,1.2C18.1,17.1,18.8,17.8,19.4,18.6z
	 M63.5,27.4c0.1,0.2,0.3,0.5,0.5,0.7h-5.9c-0.2-0.2-0.3-0.4-0.4-0.6c-0.2-0.3-0.4-0.7-0.5-1c-0.1-0.3-0.2-0.5-0.2-0.8
	c-0.3,0.3-0.6,0.6-0.9,0.8c-0.9,0.7-2,1.2-3.1,1.5c-1.2,0.4-2.5,0.5-3.8,0.5c-1.5,0-2.9-0.2-4.3-0.8c-1.2-0.4-2.2-1.2-2.9-2.2
	c-0.7-1-1.1-2.3-1.1-3.5c-0.1-1.4,0.4-2.7,1.3-3.8c0.9-1,2.1-1.8,3.4-2.2c1.5-0.5,3.1-0.9,4.6-1c1.7-0.1,3.4-0.4,5.1-0.7
	c1-0.2,1.4-0.6,1.4-1.1v0c0-0.9-0.5-1.7-1.2-2.1c-1.1-0.6-2.3-0.8-3.5-0.7c-1.3-0.1-2.5,0.2-3.6,0.8c-0.8,0.5-1.3,1.4-1.3,2.4h-5.9
	c-0.1-1.5,0.4-3,1.4-4.3c1-1.3,2.3-2.2,3.8-2.8c1.8-0.6,3.6-1,5.5-0.9c1.8,0,3.6,0.3,5.3,0.9c1.5,0.5,2.8,1.4,3.9,2.6
	c1,1.2,1.5,2.8,1.5,4.4v9.8c0,0.6,0,1.1,0.1,1.6c0,0.5,0.1,0.9,0.2,1.4C63.1,26.7,63.2,27,63.5,27.4L63.5,27.4z M56.8,17.8
	c-0.5,0.1-1.1,0.3-1.7,0.4c-1.2,0.2-2.4,0.4-3.7,0.5c-1.2,0.1-2.3,0.3-3.4,0.8c-0.7,0.4-1.2,1.2-1.1,2c0,0.8,0.3,1.5,1,1.9
	c0.9,0.5,1.9,0.7,2.9,0.6c1,0,2-0.2,3-0.6c0.9-0.4,1.7-1,2.3-1.8c0.6-0.9,0.9-2,0.9-3.1L56.8,17.8z M108.3,22.9L104,6h-6.3
	l-4.2,16.9L90.9,6h-6.2l4.5,22h8.2l3.5-16.1l3.6,16.1h8.2l4.5-22h-6.2L108.3,22.9z M141.2,11.1c1,1.8,1.6,3.9,1.5,5.9
	c0,2.1-0.5,4.1-1.5,6c-1,1.7-2.5,3.1-4.2,4.1c-3.9,2-8.5,2-12.5,0c-1.7-0.9-3.2-2.3-4.2-4.1c-1-1.8-1.6-3.9-1.5-6
	c0-2.1,0.5-4.1,1.5-5.9c1-1.7,2.5-3.1,4.2-4c3.9-1.9,8.5-1.9,12.5,0C138.7,8,140.2,9.4,141.2,11.1L141.2,11.1z M136.6,17
	c0-1.2-0.2-2.4-0.7-3.5c-0.5-0.9-1.2-1.7-2.1-2.3c-1.9-1.1-4.3-1.1-6.2,0c-0.9,0.5-1.6,1.3-2.1,2.3c-0.5,1.1-0.8,2.3-0.7,3.5
	c0,1.2,0.2,2.4,0.7,3.5c0.5,1,1.2,1.8,2.1,2.3c1.9,1.1,4.3,1.1,6.2,0c0.9-0.6,1.6-1.4,2.1-2.3C136.4,19.5,136.7,18.3,136.6,17z
	 M184.6,6h-6.9l-4.9,7.2L167.9,6H161l8.4,10.8l-8.9,11.2h6.9l5.4-7.3l5.4,7.3h6.9l-8.9-11.2L184.6,6z M157.1,6
	c-0.6,0-1.2,0.2-1.7,0.4c-0.9,0.3-1.6,0.8-2.3,1.5c-0.4,0.4-0.7,0.9-1,1.3V6h-6v22h6V17.7c0-0.3,0-0.6,0-0.9c0.1-1,0.4-1.9,0.9-2.7
	c0.1-0.2,0.3-0.4,0.4-0.6c0.1-0.1,0.2-0.2,0.3-0.4c0.1-0.1,0.2-0.2,0.3-0.3c0,0,0.1-0.1,0.1-0.1c0.1-0.1,0.2-0.1,0.3-0.2
	s0.2-0.1,0.3-0.2c2.6-1.6,6.6-0.4,6.6-0.4L157.1,6z M190.3,6.9l0.4,0.6H190L189.8,7c-0.1-0.3-0.3-0.5-0.5-0.7
	c-0.1-0.1-0.3-0.1-0.4-0.1h-0.3v1.3h-0.5v-3h1c0.3,0,0.5,0,0.8,0.1c0.2,0.1,0.3,0.2,0.4,0.3c0.1,0.1,0.1,0.3,0.1,0.4
	c0,0.2-0.1,0.4-0.2,0.6c-0.2,0.2-0.4,0.3-0.6,0.3c0.1,0,0.2,0.1,0.3,0.2C190,6.5,190.1,6.7,190.3,6.9L190.3,6.9z M189.8,5.6
	c0.1-0.1,0.2-0.2,0.2-0.3c0-0.1,0-0.2-0.1-0.2c0-0.1-0.1-0.1-0.2-0.2c-0.2,0-0.3-0.1-0.5-0.1h-0.6v0.9h0.6
	C189.4,5.8,189.6,5.7,189.8,5.6L189.8,5.6z M192.3,6c0,0.5-0.1,1-0.4,1.5c-0.3,0.5-0.6,0.9-1.1,1.1c-0.9,0.5-2.1,0.5-3,0
	c-0.5-0.3-0.9-0.6-1.1-1.1c-0.5-0.9-0.5-2.1,0-3c0.3-0.5,0.7-0.9,1.1-1.1c0.9-0.5,2-0.5,3,0c0.5,0.3,0.9,0.6,1.1,1.1
	C192.1,5,192.3,5.5,192.3,6L192.3,6z M191.8,6c0-0.4-0.1-0.9-0.3-1.3c-0.2-0.4-0.5-0.7-0.9-0.9c-0.8-0.4-1.7-0.4-2.5,0
	c-0.4,0.2-0.7,0.5-0.9,0.9c-0.5,0.8-0.5,1.7,0,2.5c0.2,0.4,0.5,0.7,0.9,0.9c0.8,0.4,1.7,0.4,2.5,0c0.4-0.2,0.7-0.5,0.9-0.9
	C191.6,6.9,191.8,6.4,191.8,6L191.8,6z M32.9,0h-5.7v1.9c0,0.8,0,1.5-0.1,2.3c0,0.4-0.2,0.9-0.4,1.2c-0.3,0.3-0.6,0.5-1,0.5
	C25.1,6,24.4,6,23.8,6h-2v4.7H27v11.6c0,1.1,0.2,2.3,0.7,3.3c0.4,0.8,1,1.4,1.8,1.9c0.7,0.4,1.5,0.7,2.4,0.9
	c0.8,0.1,1.7,0.2,2.5,0.2c0.6,0,1.2,0,1.8-0.1c0.4-0.1,0.8-0.2,1.2-0.3l-0.9-4.3c-0.6,0.2-1.2,0.2-1.8,0.1c-0.5-0.1-1-0.4-1.3-0.9
	c-0.2-0.8-0.3-1.6-0.3-2.4v-9.9h5.5V6h-5.5V0z M76.2,20.5v-9.8h6.1L81.4,6h-5.2V0h-5.7v1.9c0,0.8,0,1.5-0.1,2.3
	c0,0.4-0.2,0.9-0.4,1.2c-0.3,0.3-0.6,0.5-1,0.5C68.3,6,67.7,6,67.1,6h-2v4.7h5.1v11.6c0,1.1,0.2,2.3,0.7,3.3c0.4,0.8,1,1.4,1.8,1.9
	c0.7,0.4,1.5,0.7,2.4,0.9c0.8,0.1,1.7,0.2,2.5,0.2c0.6,0,1.2,0,1.8-0.1c0.4-0.1,0.8-0.2,1.2-0.3l-0.9-4.3c-0.6,0.2-1.2,0.2-1.8,0.1
	c-0.5-0.1-1-0.4-1.3-0.9C76.3,22.1,76.2,21.3,76.2,20.5L76.2,20.5z"/>
</svg>
